<svg width="23" height="23" viewBox="0 0 23 23" fill="none" xmlns="http://www.w3.org/2000/svg">
<g clip-path="url(#clip0_533_2348)">
<path d="M5.85054 6.02295L3.85792 6.17222C3.30345 6.21377 2.80963 6.49554 2.50299 6.94526L0.204943 10.3153C-0.0276155 10.6564 -0.0645859 11.0832 0.105981 11.4571C0.276593 11.8309 0.627205 12.0915 1.04385 12.1541L2.86834 12.4281C3.29514 10.2319 4.31683 8.04123 5.85054 6.02295Z" fill="#FFD050"/>
<path d="M10.1836 19.52L10.4662 21.2891C10.5307 21.693 10.7995 22.033 11.185 22.1984C11.3454 22.2672 11.5152 22.3012 11.6842 22.3012C11.9215 22.3012 12.1572 22.2341 12.3626 22.1024L15.8384 19.8742C16.3022 19.5769 16.5928 19.098 16.6355 18.5605L16.7895 16.6284C14.7079 18.1156 12.4486 19.1062 10.1836 19.52Z" fill="#FFD050"/>
<path d="M9.49658 18.2933C9.55992 18.2933 9.62362 18.2883 9.68718 18.278C10.6361 18.1242 11.5507 17.865 12.4232 17.5258L4.92442 10.2549C4.57457 11.1008 4.30729 11.9876 4.14863 12.9077C4.0861 13.2704 4.21156 13.6399 4.4797 13.9L8.66387 17.957C8.8865 18.1728 9.18698 18.2933 9.49658 18.2933Z" fill="#FFD050"/>
<path d="M21.1661 9.88746C23.0011 6.44763 23.069 2.81258 22.9731 1.10777C22.9403 0.523637 22.46 0.0579302 21.8575 0.0260904C21.5712 0.0109327 21.2319 0 20.8495 0C18.8835 0 15.7726 0.288736 12.8027 1.77824C10.4424 2.96197 7.34745 5.56844 5.52148 8.99381C5.54305 9.01015 5.56411 9.02748 5.58397 9.04673L13.6698 16.8869C13.6897 16.9062 13.7075 16.9265 13.7244 16.9475C17.2571 15.1769 19.9453 12.176 21.1661 9.88746ZM13.3731 4.71456C14.6866 3.44092 16.8241 3.44079 18.1377 4.71456C18.7741 5.33154 19.1245 6.15192 19.1245 7.02449C19.1245 7.89706 18.7741 8.71745 18.1377 9.33442C17.481 9.97118 16.618 10.2896 15.7554 10.2897C14.8925 10.2898 14.03 9.97135 13.3731 9.33442C12.7367 8.71745 12.3863 7.89706 12.3863 7.02449C12.3863 6.15192 12.7367 5.33154 13.3731 4.71456Z" fill="#232536"/>
<path d="M14.3264 8.41051C15.1146 9.17472 16.3971 9.17476 17.1853 8.41051C17.5671 8.04028 17.7773 7.54808 17.7773 7.02453C17.7773 6.50098 17.5671 6.00878 17.1853 5.63859C16.7912 5.25647 16.2735 5.06543 15.7559 5.06543C15.2382 5.06543 14.7205 5.25647 14.3265 5.63859C13.9447 6.00878 13.7344 6.50098 13.7344 7.02453C13.7344 7.54808 13.9447 8.04032 14.3264 8.41051Z" fill="#232536"/>
<path d="M0.687523 18.3778C0.859978 18.3778 1.03243 18.3141 1.16396 18.1864L3.36392 16.0533C3.62708 15.7982 3.62708 15.3845 3.36392 15.1294C3.10082 14.8742 2.67415 14.8742 2.411 15.1294L0.211036 17.2625C-0.0521162 17.5176 -0.0521162 17.9313 0.211036 18.1864C0.342612 18.314 0.515068 18.3778 0.687523 18.3778Z" fill="#FFD050"/>
<path d="M5.37991 17.0849C5.1168 16.8298 4.69014 16.8298 4.42698 17.0849L0.197364 21.186C-0.0657881 21.4412 -0.0657881 21.8548 0.197364 22.11C0.32894 22.2376 0.501396 22.3013 0.673851 22.3013C0.846306 22.3013 1.01876 22.2376 1.15029 22.1099L5.37987 18.0089C5.64306 17.7537 5.64306 17.3401 5.37991 17.0849Z" fill="#FFD050"/>
<path d="M6.4422 19.039L4.24229 21.1721C3.97913 21.4273 3.97913 21.8409 4.24229 22.0961C4.37386 22.2237 4.54632 22.2875 4.71873 22.2875C4.89114 22.2875 5.06364 22.2237 5.19517 22.0961L7.39513 19.963C7.65828 19.7078 7.65828 19.2942 7.39513 19.039C7.13202 18.7839 6.70535 18.7839 6.4422 19.039Z" fill="#FFD050"/>
</g>
<defs>
<clipPath id="clip0_533_2348">
<rect width="23" height="22.3011" fill="white"/>
</clipPath>
</defs>
</svg>
