<svg width="48" height="47" viewBox="0 0 48 47" fill="none" xmlns="http://www.w3.org/2000/svg">
<g clip-path="url(#clip0_533_2310)">
<path d="M18.1156 26.5918H15.5317C14.5999 26.5918 13.8418 27.3603 13.8418 28.3048V33.8539C13.8418 34.434 14.3074 34.9059 14.8796 34.9059H18.7676C19.3398 34.9059 19.8054 34.434 19.8054 33.8539V28.3049C19.8054 27.3603 19.0474 26.5918 18.1156 26.5918Z" fill="#232536"/>
<path d="M25.6996 23.2212H23.1157C22.1839 23.2212 21.4258 23.9897 21.4258 24.9342V33.8536C21.4258 34.4337 21.8914 34.9056 22.4636 34.9056H26.3516C26.9239 34.9056 27.3894 34.4337 27.3894 33.8536V24.9342C27.3894 23.9896 26.6314 23.2212 25.6996 23.2212Z" fill="#232536"/>
<path d="M33.4261 19.3813H30.8423C29.9104 19.3813 29.1523 20.1498 29.1523 21.0943V33.8538C29.1523 34.4339 29.6179 34.9058 30.1901 34.9058H34.0781C34.6504 34.9058 35.1159 34.4339 35.1159 33.8538V21.0943C35.116 20.1498 34.3579 19.3813 33.4261 19.3813Z" fill="#232536"/>
<path d="M31.3681 12.2831C31.052 11.8302 30.538 11.5907 29.9929 11.6415L25.1128 12.0992C24.5678 12.1503 24.1059 12.4816 23.8771 12.9855C23.6483 13.4894 23.7004 14.0607 24.0165 14.5136L24.2889 14.9038L18.2318 19.1466L18.2256 19.151C17.7958 19.4593 17.5102 19.9189 17.4213 20.445C17.3325 20.9711 17.4511 21.5007 17.7552 21.9364C18.0593 22.372 18.5127 22.6616 19.0317 22.7517C19.1441 22.7712 19.2567 22.7809 19.3685 22.7809C19.7713 22.7809 20.1637 22.6556 20.4996 22.4157L26.5664 18.1663L26.8476 18.569C27.1357 18.9817 27.588 19.2174 28.0783 19.2174C28.1261 19.2174 28.1743 19.2152 28.2228 19.2107C28.7677 19.1595 29.2297 18.8281 29.4585 18.3242L31.5076 13.8111C31.7364 13.3071 31.6843 12.7359 31.3681 12.2831Z" fill="#FFD050"/>
</g>
<defs>
<clipPath id="clip0_533_2310">
<rect width="22.9565" height="23.2707" fill="white" transform="translate(13 11.6353)"/>
</clipPath>
</defs>
</svg>
