<svg width="48" height="48" viewBox="0 0 48 48" fill="none" xmlns="http://www.w3.org/2000/svg">
<g clip-path="url(#clip0_2259_491)">
<mask id="mask0_2259_491" style="mask-type:luminance" maskUnits="userSpaceOnUse" x="0" y="0" width="48" height="48">
<path d="M48 0H0V48H48V0Z" fill="white"/>
</mask>
<g mask="url(#mask0_2259_491)">
<path d="M48 0H0V48H48V0Z" fill="#111111"/>
<path d="M38.352 16.9799V13.1399H24.48V34.7759H29.388V26.3999H36.48V22.7039H29.388V16.9799H38.352Z" fill="white"/>
<path d="M11.7 14.6401V21.0721C11.7016 21.2439 11.6693 21.4143 11.605 21.5736C11.5408 21.7329 11.4457 21.878 11.3254 22.0005C11.2051 22.1231 11.0617 22.2208 10.9036 22.288C10.7455 22.3551 10.5758 22.3905 10.404 22.3921H9.64795V25.5361H10.392C10.5638 25.5361 10.7339 25.5699 10.8925 25.6357C11.0512 25.7014 11.1954 25.7977 11.3169 25.9192C11.4384 26.0407 11.5347 26.1849 11.6004 26.3435C11.6662 26.5022 11.7 26.6723 11.7 26.8441V33.2041C11.7 36.5041 13.44 38.3041 16.608 38.3041H19.56V34.7041H17.772C17.6053 34.7046 17.4395 34.6804 17.28 34.6321C16.536 34.4761 16.08 33.8761 16.08 32.8321V27.4561C16.08 26.0161 16.08 24.5881 14.208 23.9281C16.08 23.2561 16.08 21.6001 16.08 20.2441V15.0001C16.0231 14.6049 16.1141 14.2026 16.3355 13.8704C16.557 13.5382 16.8933 13.2995 17.28 13.2001C17.4483 13.1559 17.622 13.1357 17.796 13.1401H19.596V9.6001H16.608C13.404 9.6001 11.7 11.4001 11.7 14.6401Z" fill="white"/>
</g>
</g>
<defs>
<clipPath id="clip0_2259_491">
<rect width="48" height="48" rx="4" fill="white"/>
</clipPath>
</defs>
</svg>
